<svg width="103" height="102" viewBox="0 0 103 102" fill="none" xmlns="http://www.w3.org/2000/svg">
<g filter="url(#filter0_d_101_27)">
<g filter="url(#filter1_d_101_27)">
<rect x="4.1" y="0.1" width="94.8" height="93.8" rx="18.9" fill="url(#paint0_linear_101_27)" stroke="black" stroke-width="0.2"/>
</g>
<path d="M9.90495 54C9.70562 54 9.52928 53.954 9.37595 53.862C9.22262 53.7547 9.14595 53.6013 9.14595 53.402V37.762C9.14595 37.6087 9.19962 37.4783 9.30695 37.371C9.42962 37.2637 9.59062 37.2023 9.78995 37.187H14.0219C14.9113 37.187 15.7163 37.348 16.4369 37.67C17.1576 37.992 17.7249 38.5133 18.1389 39.234C18.5529 39.9393 18.7599 40.8823 18.7599 42.063V42.293C18.7599 43.489 18.5453 44.4473 18.1159 45.168C17.7019 45.8733 17.1269 46.3947 16.3909 46.732C15.6703 47.054 14.8653 47.215 13.9759 47.215H10.6639V53.402C10.6639 53.6013 10.5796 53.7547 10.4109 53.862C10.2576 53.954 10.0889 54 9.90495 54ZM10.6639 45.881H13.9759C15.0033 45.881 15.8006 45.5973 16.3679 45.03C16.9506 44.4473 17.2419 43.558 17.2419 42.362V42.109C17.2419 40.8977 16.9506 40.0083 16.3679 39.441C15.8006 38.8737 15.0033 38.59 13.9759 38.59H10.6639V45.881ZM22.8962 54.161C22.0222 54.161 21.2785 53.9157 20.6652 53.425C20.0672 52.919 19.7682 52.1523 19.7682 51.125C19.7682 50.2817 19.9905 49.6377 20.4352 49.193C20.8952 48.733 21.5238 48.4187 22.3212 48.25C23.1338 48.066 24.0692 47.974 25.1272 47.974H26.3002V47.445C26.3002 46.939 26.2082 46.4483 26.0242 45.973C25.8555 45.4823 25.5718 45.0837 25.1732 44.777C24.7898 44.455 24.2608 44.294 23.5862 44.294C23.0802 44.294 22.6662 44.3477 22.3442 44.455C22.0222 44.5623 21.7692 44.6773 21.5852 44.8C21.4012 44.9073 21.2478 44.961 21.1252 44.961C20.9412 44.961 20.7878 44.869 20.6652 44.685C20.5578 44.501 20.5042 44.3323 20.5042 44.179C20.5042 43.9643 20.6652 43.7727 20.9872 43.604C21.3092 43.42 21.7078 43.2743 22.1832 43.167C22.6738 43.0443 23.1568 42.983 23.6322 42.983C24.6595 42.983 25.4722 43.1977 26.0702 43.627C26.6835 44.041 27.1205 44.5853 27.3812 45.26C27.6572 45.9347 27.7952 46.6553 27.7952 47.422V53.402C27.7952 53.5707 27.7262 53.7163 27.5882 53.839C27.4655 53.9463 27.2892 54 27.0592 54C26.8752 54 26.7065 53.9463 26.5532 53.839C26.4152 53.7163 26.3462 53.5707 26.3462 53.402V52.39C25.9628 52.85 25.4875 53.264 24.9202 53.632C24.3528 53.9847 23.6782 54.161 22.8962 54.161ZM23.2642 52.896C23.7702 52.896 24.2532 52.7657 24.7132 52.505C25.1732 52.2443 25.5488 51.93 25.8402 51.562C26.1468 51.1787 26.3002 50.8183 26.3002 50.481V49.009H25.3342C24.6442 49.009 23.9848 49.055 23.3562 49.147C22.7428 49.2237 22.2368 49.4 21.8382 49.676C21.4548 49.952 21.2632 50.389 21.2632 50.987C21.2632 51.6463 21.4548 52.1293 21.8382 52.436C22.2368 52.7427 22.7122 52.896 23.2642 52.896ZM31.3021 54C31.1028 54 30.9265 53.9387 30.7731 53.816C30.6351 53.6933 30.5661 53.5553 30.5661 53.402V43.696C30.5661 43.512 30.6351 43.374 30.7731 43.282C30.9265 43.1747 31.1028 43.121 31.3021 43.121C31.5015 43.121 31.6701 43.1747 31.8081 43.282C31.9461 43.374 32.0151 43.512 32.0151 43.696V44.823C32.1838 44.501 32.4138 44.202 32.7051 43.926C32.9965 43.65 33.3415 43.4277 33.7401 43.259C34.1388 43.075 34.5911 42.983 35.0971 42.983H35.9021C36.0708 42.983 36.2088 43.052 36.3161 43.19C36.4388 43.328 36.5001 43.489 36.5001 43.673C36.5001 43.8723 36.4388 44.041 36.3161 44.179C36.2088 44.3017 36.0708 44.363 35.9021 44.363H35.0971C34.5911 44.363 34.1005 44.501 33.6251 44.777C33.1651 45.053 32.7895 45.4363 32.4981 45.927C32.2068 46.4177 32.0611 47.0157 32.0611 47.721V53.402C32.0611 53.5553 31.9845 53.6933 31.8311 53.816C31.6931 53.9387 31.5168 54 31.3021 54ZM41.7689 54C40.5883 54 39.6836 53.7317 39.0549 53.195C38.4263 52.6583 38.1119 51.7997 38.1119 50.619V38.521C38.1119 38.337 38.1886 38.199 38.3419 38.107C38.5106 37.9997 38.6793 37.946 38.8479 37.946C39.0473 37.946 39.2236 37.9997 39.3769 38.107C39.5303 38.199 39.6069 38.337 39.6069 38.521V43.121H42.5969C42.7503 43.121 42.8729 43.1823 42.9649 43.305C43.0569 43.4277 43.1029 43.5733 43.1029 43.742C43.1029 43.9107 43.0569 44.0563 42.9649 44.179C42.8729 44.3017 42.7503 44.363 42.5969 44.363H39.6069V50.619C39.6069 51.3703 39.7679 51.8993 40.0899 52.206C40.4119 52.4973 40.9716 52.643 41.7689 52.643H42.4129C42.6276 52.643 42.7886 52.712 42.8959 52.85C43.0186 52.9727 43.0799 53.126 43.0799 53.31C43.0799 53.494 43.0186 53.655 42.8959 53.793C42.7886 53.931 42.6276 54 42.4129 54H41.7689ZM45.7001 39.901C45.4241 39.901 45.1788 39.809 44.9641 39.625C44.7648 39.4257 44.6651 39.1957 44.6651 38.935C44.6651 38.6743 44.7648 38.452 44.9641 38.268C45.1788 38.084 45.4241 37.992 45.7001 37.992C45.9761 37.992 46.2138 38.084 46.4131 38.268C46.6125 38.452 46.7121 38.6743 46.7121 38.935C46.7121 39.1957 46.6125 39.4257 46.4131 39.625C46.2138 39.809 45.9761 39.901 45.7001 39.901ZM45.6771 54C45.4778 54 45.3015 53.9387 45.1481 53.816C45.0101 53.6933 44.9411 53.5553 44.9411 53.402V43.696C44.9411 43.512 45.0101 43.374 45.1481 43.282C45.3015 43.1747 45.4778 43.121 45.6771 43.121C45.8918 43.121 46.0681 43.1747 46.2061 43.282C46.3595 43.374 46.4361 43.512 46.4361 43.696V53.402C46.4361 53.5553 46.3595 53.6933 46.2061 53.816C46.0681 53.9387 45.8918 54 45.6771 54ZM53.3926 54.161C52.3806 54.161 51.5449 53.9693 50.8856 53.586C50.2262 53.2027 49.7356 52.6813 49.4136 52.022C49.0916 51.3627 48.9306 50.619 48.9306 49.791V47.353C48.9306 46.525 49.0839 45.7813 49.3906 45.122C49.7126 44.4627 50.2032 43.9413 50.8626 43.558C51.5372 43.1747 52.3806 42.983 53.3926 42.983C54.0366 42.983 54.5962 43.0673 55.0716 43.236C55.5622 43.3893 55.9379 43.581 56.1986 43.811C56.4746 44.041 56.6126 44.2633 56.6126 44.478C56.6126 44.5853 56.5819 44.7003 56.5206 44.823C56.4746 44.9303 56.3979 45.0223 56.2906 45.099C56.1986 45.1757 56.0912 45.214 55.9686 45.214C55.8306 45.214 55.6696 45.145 55.4856 45.007C55.3169 44.8537 55.0792 44.708 54.7726 44.57C54.4659 44.432 54.0289 44.363 53.4616 44.363C52.4649 44.363 51.7059 44.6313 51.1846 45.168C50.6786 45.6893 50.4256 46.4177 50.4256 47.353V49.791C50.4256 50.7263 50.6786 51.4623 51.1846 51.999C51.7059 52.5203 52.4726 52.781 53.4846 52.781C54.0672 52.781 54.5196 52.712 54.8416 52.574C55.1636 52.4207 55.4089 52.275 55.5776 52.137C55.7616 51.9837 55.9302 51.907 56.0836 51.907C56.2216 51.907 56.3366 51.9453 56.4286 52.022C56.5359 52.0987 56.6126 52.1907 56.6586 52.298C56.7199 52.4053 56.7506 52.5203 56.7506 52.643C56.7506 52.8423 56.6126 53.0647 56.3366 53.31C56.0606 53.54 55.6696 53.7393 55.1636 53.908C54.6729 54.0767 54.0826 54.161 53.3926 54.161ZM63.1963 54.161C62.2303 54.161 61.3716 53.977 60.6203 53.609C59.8843 53.241 59.3016 52.735 58.8723 52.091C58.4583 51.4317 58.2513 50.665 58.2513 49.791V47.238C58.2513 46.4713 58.4506 45.766 58.8493 45.122C59.248 44.4627 59.777 43.9413 60.4363 43.558C61.111 43.1747 61.847 42.983 62.6443 42.983C63.411 42.983 64.1163 43.167 64.7603 43.535C65.4196 43.8877 65.9486 44.3783 66.3473 45.007C66.746 45.6357 66.9453 46.364 66.9453 47.192C66.9453 47.7747 66.8456 48.1963 66.6463 48.457C66.447 48.7177 66.194 48.8787 65.8873 48.94C65.596 48.986 65.2816 49.009 64.9443 49.009H59.7463V49.86C59.7463 50.78 60.076 51.5083 60.7353 52.045C61.3946 52.5817 62.2303 52.85 63.2423 52.85C63.8556 52.85 64.331 52.7733 64.6683 52.62C65.0056 52.4667 65.2663 52.3133 65.4503 52.16C65.6496 52.0067 65.8336 51.93 66.0023 51.93C66.125 51.93 66.2323 51.976 66.3243 52.068C66.4316 52.1447 66.5083 52.2367 66.5543 52.344C66.6156 52.4513 66.6463 52.551 66.6463 52.643C66.6463 52.8117 66.5083 53.0187 66.2323 53.264C65.9563 53.5093 65.5576 53.724 65.0363 53.908C64.515 54.0767 63.9016 54.161 63.1963 54.161ZM59.7463 47.905H64.3463C64.8063 47.905 65.113 47.859 65.2663 47.767C65.4196 47.6597 65.4963 47.445 65.4963 47.123C65.4963 46.6323 65.3736 46.1723 65.1283 45.743C64.883 45.2983 64.5456 44.938 64.1163 44.662C63.687 44.3707 63.1886 44.225 62.6213 44.225C62.1 44.225 61.617 44.3553 61.1723 44.616C60.743 44.8767 60.398 45.214 60.1373 45.628C59.8766 46.042 59.7463 46.5097 59.7463 47.031V47.905ZM70.1195 54C69.9202 54 69.7438 53.9387 69.5905 53.816C69.4525 53.6933 69.3835 53.5553 69.3835 53.402V37.026C69.3835 36.842 69.4525 36.704 69.5905 36.612C69.7438 36.5047 69.9202 36.451 70.1195 36.451C70.3342 36.451 70.5105 36.5047 70.6485 36.612C70.8018 36.704 70.8785 36.842 70.8785 37.026V53.402C70.8785 53.5553 70.8018 53.6933 70.6485 53.816C70.5105 53.9387 70.3342 54 70.1195 54ZM77.8477 54.138C76.8663 54.138 76.0153 53.9693 75.2947 53.632C74.574 53.2793 74.0143 52.7963 73.6157 52.183C73.217 51.5697 73.0177 50.872 73.0177 50.09C73.0177 49.7833 73.079 49.5763 73.2017 49.469C73.3397 49.3617 73.5313 49.308 73.7767 49.308C73.9607 49.308 74.1293 49.354 74.2827 49.446C74.4513 49.538 74.5357 49.6913 74.5357 49.906C74.551 50.4733 74.689 50.9717 74.9497 51.401C75.2103 51.8303 75.586 52.16 76.0767 52.39C76.5673 52.62 77.1423 52.735 77.8017 52.735C78.829 52.735 79.6263 52.4513 80.1937 51.884C80.7763 51.3013 81.0677 50.412 81.0677 49.216V38.59H77.8247C77.656 38.59 77.518 38.521 77.4107 38.383C77.3187 38.2297 77.2727 38.061 77.2727 37.877C77.2727 37.7083 77.311 37.555 77.3877 37.417C77.4797 37.2637 77.6253 37.187 77.8247 37.187H81.8957C82.0643 37.187 82.2177 37.2407 82.3557 37.348C82.509 37.44 82.5857 37.5857 82.5857 37.785V49.216C82.5857 50.412 82.371 51.3703 81.9417 52.091C81.5277 52.8117 80.9603 53.333 80.2397 53.655C79.5343 53.977 78.737 54.138 77.8477 54.138ZM89.7798 54.161C88.7985 54.161 87.9551 54.0153 87.2498 53.724C86.5445 53.4173 86.0001 53.0723 85.6168 52.689C85.2488 52.2903 85.0648 51.953 85.0648 51.677C85.0648 51.5543 85.0955 51.424 85.1568 51.286C85.2335 51.148 85.3255 51.0407 85.4328 50.964C85.5401 50.872 85.6475 50.826 85.7548 50.826C85.9081 50.826 86.0615 50.9257 86.2148 51.125C86.3835 51.309 86.5981 51.5313 86.8588 51.792C87.1348 52.0373 87.4951 52.2597 87.9398 52.459C88.3845 52.643 88.9672 52.735 89.6878 52.735C90.4085 52.735 91.0218 52.62 91.5278 52.39C92.0338 52.1447 92.4248 51.792 92.7008 51.332C92.9768 50.8567 93.1148 50.2663 93.1148 49.561C93.1148 48.825 92.9768 48.2347 92.7008 47.79C92.4248 47.3453 92.0568 46.9773 91.5968 46.686C91.1522 46.3947 90.6615 46.1493 90.1248 45.95C89.5882 45.7507 89.0438 45.5437 88.4918 45.329C87.9551 45.1143 87.4568 44.8537 86.9968 44.547C86.5368 44.225 86.1688 43.811 85.8928 43.305C85.6168 42.7837 85.4788 42.1243 85.4788 41.327C85.4788 40.499 85.6321 39.8167 85.9388 39.28C86.2455 38.728 86.6365 38.2987 87.1118 37.992C87.6025 37.6853 88.1315 37.4707 88.6988 37.348C89.2661 37.21 89.8181 37.141 90.3548 37.141C90.7841 37.141 91.2211 37.1793 91.6658 37.256C92.1258 37.3173 92.5475 37.4093 92.9308 37.532C93.3142 37.6547 93.6208 37.808 93.8508 37.992C94.0962 38.1607 94.2188 38.3523 94.2188 38.567C94.2188 38.659 94.1882 38.774 94.1268 38.912C94.0808 39.0347 94.0118 39.1497 93.9198 39.257C93.8278 39.3643 93.7052 39.418 93.5518 39.418C93.4138 39.418 93.2222 39.349 92.9768 39.211C92.7315 39.0577 92.3942 38.912 91.9648 38.774C91.5508 38.6207 91.0065 38.544 90.3318 38.544C89.7798 38.544 89.2432 38.6207 88.7218 38.774C88.2158 38.9273 87.8018 39.2033 87.4798 39.602C87.1578 39.9853 86.9968 40.5143 86.9968 41.189C86.9968 41.8023 87.1348 42.3007 87.4108 42.684C87.7021 43.052 88.0701 43.351 88.5148 43.581C88.9748 43.811 89.4731 44.0257 90.0098 44.225C90.5465 44.409 91.0832 44.6237 91.6198 44.869C92.1718 45.099 92.6702 45.398 93.1148 45.766C93.5748 46.1187 93.9428 46.5863 94.2188 47.169C94.4948 47.7517 94.6328 48.503 94.6328 49.423C94.6328 50.5117 94.4258 51.4087 94.0118 52.114C93.5978 52.804 93.0228 53.3177 92.2868 53.655C91.5661 53.9923 90.7305 54.161 89.7798 54.161Z" fill="white"/>
<path d="M9.37595 53.862L9.08922 54.2716L9.10362 54.2817L9.1187 54.2907L9.37595 53.862ZM9.30695 37.371L8.9777 36.9947L8.96517 37.0057L8.9534 37.0174L9.30695 37.371ZM9.78995 37.187V36.687H9.77075L9.7516 36.6885L9.78995 37.187ZM16.4369 37.67L16.6409 37.2135H16.6409L16.4369 37.67ZM18.1389 39.234L17.7054 39.4831L17.7077 39.4871L18.1389 39.234ZM18.1159 45.168L17.6864 44.9121L17.6847 44.9149L18.1159 45.168ZM16.391 46.732L16.5949 47.1885L16.5993 47.1865L16.391 46.732ZM10.6639 47.215V46.715H10.1639V47.215H10.6639ZM10.4109 53.862L10.6683 54.2909L10.6794 54.2838L10.4109 53.862ZM10.6639 45.881H10.1639V46.381H10.6639V45.881ZM16.3679 39.441L16.0144 39.7946L16.0191 39.7992L16.3679 39.441ZM10.6639 38.59V38.09H10.1639V38.59H10.6639ZM9.90495 53.5C9.78556 53.5 9.70015 53.4734 9.6332 53.4333L9.1187 54.2907C9.35841 54.4346 9.62567 54.5 9.90495 54.5V53.5ZM9.66268 53.4524C9.65429 53.4465 9.6509 53.4428 9.65024 53.4421C9.64973 53.4415 9.6502 53.442 9.65066 53.4429C9.65228 53.4461 9.64595 53.4367 9.64595 53.402H8.64595C8.64595 53.752 8.79229 54.0638 9.08922 54.2716L9.66268 53.4524ZM9.64595 53.402V37.762H8.64595V53.402H9.64595ZM9.64595 37.762C9.64595 37.7529 9.64673 37.7472 9.6473 37.7443C9.64784 37.7414 9.64836 37.74 9.64854 37.7396C9.64871 37.7392 9.64915 37.7382 9.65047 37.7362C9.65184 37.7342 9.6548 37.7303 9.6605 37.7246L8.9534 37.0174C8.75123 37.2196 8.64595 37.4776 8.64595 37.762H9.64595ZM9.6362 37.7473C9.66067 37.7259 9.71169 37.6945 9.8283 37.6855L9.7516 36.6885C9.46954 36.7102 9.19857 36.8015 8.9777 36.9947L9.6362 37.7473ZM9.78995 37.687H14.0219V36.687H9.78995V37.687ZM14.0219 37.687C14.8499 37.687 15.5842 37.8366 16.233 38.1265L16.6409 37.2135C15.8484 36.8594 14.9727 36.687 14.0219 36.687V37.687ZM16.233 38.1265C16.8518 38.403 17.3411 38.8489 17.7054 39.4831L18.5725 38.9849C18.1088 38.1778 17.4634 37.581 16.6409 37.2135L16.233 38.1265ZM17.7077 39.4871C18.061 40.089 18.2599 40.9342 18.2599 42.063H19.2599C19.2599 40.8305 19.0449 39.7897 18.5702 38.9809L17.7077 39.4871ZM18.2599 42.063V42.293H19.2599V42.063H18.2599ZM18.2599 42.293C18.2599 43.4352 18.054 44.295 17.6864 44.9121L18.5455 45.4239C19.0365 44.5997 19.2599 43.5428 19.2599 42.293H18.2599ZM17.6847 44.9149C17.3221 45.5328 16.8244 45.9833 16.1826 46.2775L16.5993 47.1865C17.4295 46.806 18.0818 46.2139 18.5472 45.4211L17.6847 44.9149ZM16.187 46.2755C15.5382 46.5654 14.8039 46.715 13.9759 46.715V47.715C14.9267 47.715 15.8024 47.5426 16.5949 47.1885L16.187 46.2755ZM13.9759 46.715H10.6639V47.715H13.9759V46.715ZM10.1639 47.215V53.402H11.1639V47.215H10.1639ZM10.1639 53.402C10.1639 53.4165 10.1624 53.4242 10.1618 53.4266C10.1613 53.4287 10.1613 53.4278 10.1626 53.4255C10.1638 53.4233 10.1645 53.4229 10.1628 53.4246C10.1609 53.4266 10.1551 53.4322 10.1425 53.4402L10.6794 54.2838C10.9918 54.085 11.1639 53.7729 11.1639 53.402H10.1639ZM10.1537 53.4333C10.0804 53.4772 10.0011 53.5 9.90495 53.5V54.5C10.1768 54.5 10.4348 54.4308 10.6682 54.2907L10.1537 53.4333ZM10.6639 46.381H13.9759V45.381H10.6639V46.381ZM13.9759 46.381C15.0969 46.381 16.036 46.069 16.7215 45.3836L16.0144 44.6764C15.5652 45.1256 14.9096 45.381 13.9759 45.381V46.381ZM16.7215 45.3836C17.4332 44.6719 17.742 43.6307 17.742 42.362H16.742C16.742 43.4853 16.4681 44.2228 16.0144 44.6764L16.7215 45.3836ZM17.742 42.362V42.109H16.742V42.362H17.742ZM17.742 42.109C17.742 40.8285 17.4348 39.7819 16.7168 39.0828L16.0191 39.7992C16.4665 40.2348 16.742 40.9669 16.742 42.109H17.742ZM16.7215 39.0874C16.036 38.402 15.0969 38.09 13.9759 38.09V39.09C14.9096 39.09 15.5652 39.3454 16.0144 39.7946L16.7215 39.0874ZM13.9759 38.09H10.6639V39.09H13.9759V38.09ZM10.1639 38.59V45.881H11.1639V38.59H10.1639ZM20.6652 53.425L20.3421 53.8068L20.3528 53.8154L20.6652 53.425ZM20.4352 49.193L20.7887 49.5466L20.4352 49.193ZM22.3212 48.25L22.4247 48.7392L22.4316 48.7377L22.3212 48.25ZM26.3002 47.974V48.474H26.8002V47.974H26.3002ZM26.0242 45.973L25.5513 46.1355L25.5544 46.1446L25.5579 46.1535L26.0242 45.973ZM25.1732 44.777L24.8516 45.1599L24.8598 45.1668L24.8683 45.1733L25.1732 44.777ZM21.5852 44.8L21.8371 45.2319L21.8501 45.2243L21.8625 45.216L21.5852 44.8ZM20.6652 44.685L20.2333 44.9369L20.2408 44.9499L20.2492 44.9623L20.6652 44.685ZM20.9872 43.604L21.2192 44.0469L21.2273 44.0427L21.2352 44.0381L20.9872 43.604ZM22.1832 43.167L22.2933 43.6548L22.3044 43.6521L22.1832 43.167ZM26.0702 43.627L25.7786 44.0332L25.7844 44.0374L25.7904 44.0414L26.0702 43.627ZM27.3812 45.26L26.9147 45.4402L26.9184 45.4493L27.3812 45.26ZM27.5882 53.839L27.9174 54.2153L27.9204 54.2127L27.5882 53.839ZM26.5532 53.839L26.221 54.2127L26.2427 54.232L26.2664 54.2486L26.5532 53.839ZM26.3462 52.39H26.8462V51.009L25.9621 52.0699L26.3462 52.39ZM24.9202 53.632L25.1842 54.0567L25.1923 54.0515L24.9202 53.632ZM24.7132 52.505L24.4667 52.07L24.7132 52.505ZM25.8402 51.562L25.4497 51.2496L25.4482 51.2516L25.8402 51.562ZM26.3002 49.009H26.8002V48.509H26.3002V49.009ZM23.3562 49.147L23.4182 49.6432L23.4286 49.6417L23.3562 49.147ZM21.8382 49.676L21.5535 49.2648L21.546 49.2702L21.8382 49.676ZM21.8382 52.436L21.5258 52.8265L21.5333 52.8323L21.8382 52.436ZM22.8962 53.661C22.1221 53.661 21.4922 53.4463 20.9775 53.0346L20.3528 53.8154C21.0649 54.3851 21.9222 54.661 22.8962 54.661V53.661ZM20.9881 53.0433C20.5351 52.6599 20.2682 52.0542 20.2682 51.125H19.2682C19.2682 52.2505 19.5993 53.1781 20.3422 53.8067L20.9881 53.0433ZM20.2682 51.125C20.2682 50.3676 20.4663 49.869 20.7887 49.5466L20.0816 48.8394C19.5147 49.4064 19.2682 50.1957 19.2682 51.125H20.2682ZM20.7887 49.5466C21.1648 49.1705 21.6981 48.8929 22.4247 48.7392L22.2177 47.7608C21.3495 47.9445 20.6255 48.2955 20.0816 48.8394L20.7887 49.5466ZM22.4316 48.7377C23.1998 48.5637 24.0969 48.474 25.1272 48.474V47.474C24.0415 47.474 23.0678 47.5683 22.2108 47.7623L22.4316 48.7377ZM25.1272 48.474H26.3002V47.474H25.1272V48.474ZM26.8002 47.974V47.445H25.8002V47.974H26.8002ZM26.8002 47.445C26.8002 46.8768 26.6966 46.325 26.4905 45.7925L25.5579 46.1535C25.7198 46.5717 25.8002 47.0012 25.8002 47.445H26.8002ZM26.497 45.8105C26.2976 45.2302 25.957 44.7491 25.478 44.3807L24.8683 45.1733C25.1867 45.4182 25.4135 45.7345 25.5513 46.1355L26.497 45.8105ZM25.4948 44.3941C24.9943 43.9737 24.3374 43.794 23.5862 43.794V44.794C24.1842 44.794 24.5854 44.9363 24.8516 45.1599L25.4948 44.3941ZM23.5862 43.794C23.0501 43.794 22.5775 43.8502 22.1861 43.9807L22.5023 44.9293C22.7548 44.8452 23.1102 44.794 23.5862 44.794V43.794ZM22.1861 43.9807C21.8418 44.0954 21.5429 44.2272 21.3078 44.384L21.8625 45.216C21.9954 45.1274 22.2025 45.0293 22.5023 44.9293L22.1861 43.9807ZM21.3332 44.3681C21.2608 44.4103 21.2059 44.4352 21.167 44.4488C21.1272 44.4627 21.1153 44.461 21.1252 44.461V45.461C21.3798 45.461 21.6258 45.3552 21.8371 45.2319L21.3332 44.3681ZM21.1252 44.461C21.1213 44.461 21.1216 44.4606 21.1245 44.4614C21.1257 44.4617 21.127 44.4622 21.1281 44.4626C21.1291 44.4631 21.1296 44.4634 21.1294 44.4633C21.1292 44.4631 21.1247 44.4604 21.1165 44.4522C21.1081 44.4438 21.096 44.4298 21.0812 44.4076L20.2492 44.9623C20.4431 45.2532 20.7386 45.461 21.1252 45.461V44.461ZM21.0971 44.4331C21.0178 44.2971 21.0042 44.2159 21.0042 44.179H20.0042C20.0042 44.4488 20.0979 44.7049 20.2333 44.9369L21.0971 44.4331ZM21.0042 44.179C21.0042 44.2084 20.9897 44.2173 21.0078 44.1958C21.032 44.1671 21.092 44.1135 21.2192 44.0469L20.7552 43.1611C20.3882 43.3533 20.0042 43.6738 20.0042 44.179H21.0042ZM21.2352 44.0381C21.5031 43.8851 21.8521 43.7543 22.2933 43.6547L22.073 42.6793C21.5636 42.7943 21.1152 42.9549 20.7391 43.1699L21.2352 44.0381ZM22.3044 43.6521C22.758 43.5387 23.2002 43.483 23.6322 43.483V42.483C23.1134 42.483 22.5897 42.55 22.0619 42.6819L22.3044 43.6521ZM23.6322 43.483C24.5951 43.483 25.2933 43.6847 25.7786 44.0332L26.3618 43.2208C25.6511 42.7106 24.7239 42.483 23.6322 42.483V43.483ZM25.7904 44.0414C26.3212 44.3997 26.6918 44.8632 26.9148 45.4402L27.8476 45.0798C27.5492 44.3075 27.0459 43.6823 26.3499 43.2126L25.7904 44.0414ZM26.9184 45.4493C27.1686 46.0608 27.2952 46.7168 27.2952 47.422H28.2952C28.2952 46.5938 28.1458 45.8085 27.844 45.0707L26.9184 45.4493ZM27.2952 47.422V53.402H28.2952V47.422H27.2952ZM27.2952 53.402C27.2952 53.4158 27.2929 53.4209 27.2916 53.4237C27.2897 53.4276 27.282 53.4421 27.256 53.4653L27.9204 54.2127C28.1538 54.0052 28.2952 53.728 28.2952 53.402H27.2952ZM27.2589 53.4627C27.2587 53.4629 27.2175 53.5 27.0592 53.5V54.5C27.3609 54.5 27.6723 54.4298 27.9174 54.2153L27.2589 53.4627ZM27.0592 53.5C26.9796 53.5 26.9107 53.479 26.8399 53.4294L26.2664 54.2486C26.5023 54.4137 26.7707 54.5 27.0592 54.5V53.5ZM26.8854 53.4653C26.8593 53.4421 26.8516 53.4276 26.8498 53.4237C26.8485 53.4209 26.8462 53.4158 26.8462 53.402H25.8462C25.8462 53.728 25.9876 54.0052 26.221 54.2127L26.8854 53.4653ZM26.8462 53.402V52.39H25.8462V53.402H26.8462ZM25.9621 52.0699C25.6147 52.4867 25.1787 52.8684 24.6481 53.2125L25.1923 54.0515C25.7964 53.6596 26.311 53.2133 26.7303 52.7101L25.9621 52.0699ZM24.6562 53.2074C24.1808 53.5029 23.601 53.661 22.8962 53.661V54.661C23.7553 54.661 24.5249 54.4665 25.1841 54.0566L24.6562 53.2074ZM23.2642 53.396C23.8605 53.396 24.428 53.2413 24.9597 52.94L24.4667 52.07C24.0783 52.29 23.6798 52.396 23.2642 52.396V53.396ZM24.9597 52.94C25.4687 52.6516 25.8961 52.2969 26.2322 51.8724L25.4482 51.2516C25.2016 51.5631 24.8776 51.8371 24.4667 52.07L24.9597 52.94ZM26.2306 51.8743C26.5769 51.4415 26.8002 50.9735 26.8002 50.481H25.8002C25.8002 50.6632 25.7168 50.9159 25.4497 51.2497L26.2306 51.8743ZM26.8002 50.481V49.009H25.8002V50.481H26.8002ZM26.3002 48.509H25.3342V49.509H26.3002V48.509ZM25.3342 48.509C24.622 48.509 23.9384 48.5565 23.2838 48.6523L23.4286 49.6417C24.0313 49.5535 24.6664 49.509 25.3342 49.509V48.509ZM23.2942 48.6509C22.6223 48.7348 22.0342 48.9322 21.5536 49.2649L22.1228 50.0871C22.4395 49.8678 22.8634 49.7125 23.4182 49.6431L23.2942 48.6509ZM21.546 49.2702C20.9978 49.6649 20.7632 50.2758 20.7632 50.987H21.7632C21.7632 50.5022 21.9118 50.2391 22.1303 50.0818L21.546 49.2702ZM20.7632 50.987C20.7632 51.7425 20.9863 52.3948 21.5258 52.8264L22.1505 52.0456C21.9234 51.8639 21.7632 51.5502 21.7632 50.987H20.7632ZM21.5333 52.8323C22.028 53.2128 22.6133 53.396 23.2642 53.396V52.396C22.8111 52.396 22.4457 52.2725 22.143 52.0397L21.5333 52.8323ZM30.7731 53.816L30.441 54.1897L30.4507 54.1983L30.4608 54.2064L30.7731 53.816ZM30.7731 43.282L31.0506 43.6981L31.0599 43.6916L30.7731 43.282ZM31.8081 43.282L31.5012 43.6767L31.5156 43.6879L31.5308 43.698L31.8081 43.282ZM32.0151 44.823H31.5151L32.4581 45.055L32.0151 44.823ZM32.7051 43.926L32.3613 43.563L32.7051 43.926ZM33.7401 43.259L33.935 43.7195L33.9424 43.7163L33.9497 43.713L33.7401 43.259ZM36.3161 43.19L35.9215 43.497L35.9315 43.5099L35.9424 43.5222L36.3161 43.19ZM36.3161 44.179L35.9424 43.8468L35.9398 43.8497L36.3161 44.179ZM33.6251 44.777L33.374 44.3446L33.3679 44.3483L33.6251 44.777ZM32.4981 45.927L32.9281 46.1823V46.1823L32.4981 45.927ZM31.8311 53.816L31.5188 53.4256L31.5087 53.4337L31.499 53.4423L31.8311 53.816ZM31.3021 53.5C31.2145 53.5 31.1487 53.4761 31.0855 53.4256L30.4608 54.2064C30.7042 54.4012 30.9911 54.5 31.3021 54.5V53.5ZM31.1053 53.4423C31.0747 53.4151 31.0662 53.399 31.0651 53.3969C31.0646 53.3958 31.0651 53.3967 31.0656 53.3989C31.0661 53.4011 31.0661 53.4025 31.0661 53.402H30.0661C30.0661 53.7271 30.22 53.9933 30.441 54.1897L31.1053 53.4423ZM31.0661 53.402V43.696H30.0661V53.402H31.0661ZM31.0661 43.696C31.0661 43.6812 31.0675 43.6735 31.068 43.6714C31.0684 43.6696 31.0679 43.6725 31.0651 43.6781C31.0622 43.6839 31.0583 43.6896 31.0542 43.6941C31.0503 43.6985 31.0482 43.6995 31.0505 43.698L30.4958 42.866C30.2017 43.062 30.0661 43.3663 30.0661 43.696H31.0661ZM31.0599 43.6916C31.1236 43.647 31.1983 43.621 31.3021 43.621V42.621C31.0073 42.621 30.7294 42.7023 30.4864 42.8724L31.0599 43.6916ZM31.3021 43.621C31.4066 43.621 31.463 43.647 31.5012 43.6767L32.1151 42.8873C31.8773 42.7023 31.5963 42.621 31.3021 42.621V43.621ZM31.5308 43.698C31.5331 43.6995 31.531 43.6985 31.5271 43.6941C31.523 43.6896 31.5191 43.6839 31.5162 43.6781C31.5134 43.6725 31.5129 43.6696 31.5133 43.6714C31.5137 43.6735 31.5151 43.6812 31.5151 43.696H32.5151C32.5151 43.3663 32.3796 43.062 32.0855 42.866L31.5308 43.698ZM31.5151 43.696V44.823H32.5151V43.696H31.5151ZM32.4581 45.055C32.5986 44.7866 32.7935 44.531 33.049 44.289L32.3613 43.563C32.0341 43.873 31.769 44.2154 31.5722 44.591L32.4581 45.055ZM33.049 44.289C33.2936 44.0573 33.5871 43.8667 33.935 43.7195L33.5453 42.7985C33.0959 42.9887 32.6994 43.2427 32.3613 43.563L33.049 44.289ZM33.9497 43.713C34.2733 43.5636 34.6525 43.483 35.0971 43.483V42.483C34.5298 42.483 34.0043 42.5864 33.5306 42.805L33.9497 43.713ZM35.0971 43.483H35.9021V42.483H35.0971V43.483ZM35.9021 43.483C35.9062 43.483 35.909 43.4832 35.9107 43.4834C35.9115 43.4835 35.9122 43.4836 35.9126 43.4836C35.9129 43.4837 35.9131 43.4837 35.9131 43.4837C35.9131 43.4837 35.913 43.4837 35.9127 43.4836C35.9124 43.4835 35.912 43.4834 35.9116 43.4833C35.9106 43.4829 35.9096 43.4825 35.9085 43.482C35.9062 43.4808 35.9058 43.4802 35.9075 43.4816C35.9092 43.4831 35.9141 43.4876 35.9215 43.497L36.7108 42.883C36.5128 42.6284 36.2316 42.483 35.9021 42.483V43.483ZM35.9424 43.5222C35.9841 43.569 36.0001 43.6119 36.0001 43.673H37.0001C37.0001 43.3661 36.8936 43.087 36.6898 42.8578L35.9424 43.5222ZM36.0001 43.673C36.0001 43.7605 35.977 43.808 35.9424 43.8468L36.6898 44.5112C36.9006 44.274 37.0001 43.9842 37.0001 43.673H36.0001ZM35.9398 43.8497C35.9345 43.8559 35.931 43.8586 35.9299 43.8595C35.9288 43.8603 35.9287 43.8603 35.9291 43.8601C35.9294 43.8599 35.9283 43.8605 35.9248 43.8612C35.9212 43.8619 35.9139 43.863 35.9021 43.863V44.863C36.2093 44.863 36.4864 44.7437 36.6924 44.5083L35.9398 43.8497ZM35.9021 43.863H35.0971V44.863H35.9021V43.863ZM35.0971 43.863C34.4954 43.863 33.9189 44.0283 33.3741 44.3446L33.8762 45.2094C34.2821 44.9737 34.6869 44.863 35.0971 44.863V43.863ZM33.3679 44.3483C32.8323 44.6696 32.3991 45.1145 32.0682 45.6717L32.9281 46.1823C33.1799 45.7582 33.498 45.4364 33.8824 45.2057L33.3679 44.3483ZM32.0682 45.6717C31.7213 46.256 31.5611 46.9469 31.5611 47.721H32.5611C32.5611 47.0844 32.6923 46.5794 32.9281 46.1823L32.0682 45.6717ZM31.5611 47.721V53.402H32.5611V47.721H31.5611ZM31.5611 53.402C31.5611 53.3982 31.5617 53.3927 31.5632 53.3869C31.5639 53.3841 31.5647 53.3819 31.5654 53.3802C31.5661 53.3785 31.5666 53.3776 31.5666 53.3777C31.5665 53.3778 31.5566 53.3953 31.5188 53.4256L32.1435 54.2064C32.3792 54.0178 32.5611 53.7482 32.5611 53.402H31.5611ZM31.499 53.4423C31.4671 53.4706 31.4155 53.5 31.3021 53.5V54.5C31.6181 54.5 31.9191 54.4068 32.1633 54.1897L31.499 53.4423ZM38.3419 38.107L38.5993 38.5359L38.6104 38.5288L38.3419 38.107ZM39.3769 38.107L39.0902 38.5166L39.1046 38.5267L39.1197 38.5357L39.3769 38.107ZM39.6069 43.121H39.1069V43.621H39.6069V43.121ZM42.9649 43.305L43.3649 43.005L43.3649 43.005L42.9649 43.305ZM42.9649 44.179L43.3649 44.479L43.3649 44.479L42.9649 44.179ZM39.6069 44.363V43.863H39.1069V44.363H39.6069ZM40.0899 52.206L39.745 52.5682L39.7545 52.5768L40.0899 52.206ZM42.8959 52.85L42.5013 53.157L42.5204 53.1815L42.5424 53.2036L42.8959 52.85ZM42.8959 53.793L42.5222 53.4608L42.5113 53.4731L42.5013 53.486L42.8959 53.793ZM41.7689 53.5C40.6571 53.5 39.8857 53.2468 39.3796 52.8147L38.7303 53.5753C39.4815 54.2165 40.5194 54.5 41.7689 54.5V53.5ZM39.3796 52.8147C38.9035 52.4083 38.6119 51.7181 38.6119 50.619H37.6119C37.6119 51.8812 37.9491 52.9084 38.7303 53.5753L39.3796 52.8147ZM38.6119 50.619V38.521H37.6119V50.619H38.6119ZM38.6119 38.521C38.6119 38.5097 38.6131 38.5058 38.6127 38.5074C38.6122 38.5094 38.6106 38.515 38.6065 38.5223C38.6024 38.5296 38.598 38.5351 38.5949 38.5382C38.592 38.541 38.5925 38.5398 38.5992 38.5357L38.0847 37.6783C37.7755 37.8638 37.6119 38.1676 37.6119 38.521H38.6119ZM38.6104 38.5288C38.7139 38.463 38.7908 38.446 38.8479 38.446V37.446C38.5678 37.446 38.3073 37.5364 38.0735 37.6852L38.6104 38.5288ZM38.8479 38.446C38.9517 38.446 39.0265 38.472 39.0902 38.5166L39.6637 37.6974C39.4207 37.5273 39.1428 37.446 38.8479 37.446V38.446ZM39.1197 38.5357C39.1264 38.5398 39.1269 38.541 39.124 38.5382C39.1209 38.5351 39.1164 38.5296 39.1124 38.5223C39.1083 38.515 39.1066 38.5094 39.1062 38.5074C39.1058 38.5058 39.1069 38.5097 39.1069 38.521H40.1069C40.1069 38.1676 39.9434 37.8638 39.6342 37.6783L39.1197 38.5357ZM39.1069 38.521V43.121H40.1069V38.521H39.1069ZM39.6069 43.621H42.5969V42.621H39.6069V43.621ZM42.5969 43.621C42.6018 43.621 42.6017 43.6215 42.5977 43.6206C42.5935 43.6197 42.5873 43.6177 42.5803 43.6142C42.5733 43.6107 42.568 43.6069 42.5648 43.6041C42.5617 43.6015 42.562 43.6011 42.5649 43.605L43.3649 43.005C43.1785 42.7564 42.9076 42.621 42.5969 42.621V43.621ZM42.5649 43.605C42.5855 43.6324 42.6029 43.6701 42.6029 43.742H43.6029C43.6029 43.4766 43.5284 43.2229 43.3649 43.005L42.5649 43.605ZM42.6029 43.742C42.6029 43.8139 42.5855 43.8516 42.5649 43.879L43.3649 44.479C43.5284 44.2611 43.6029 44.0074 43.6029 43.742H42.6029ZM42.5649 43.879C42.562 43.8829 42.5617 43.8825 42.5648 43.8799C42.568 43.8771 42.5733 43.8733 42.5803 43.8698C42.5873 43.8663 42.5935 43.8643 42.5977 43.8634C42.6017 43.8625 42.6018 43.863 42.5969 43.863V44.863C42.9076 44.863 43.1785 44.7276 43.3649 44.479L42.5649 43.879ZM42.5969 43.863H39.6069V44.863H42.5969V43.863ZM39.1069 44.363V50.619H40.1069V44.363H39.1069ZM39.1069 50.619C39.1069 51.4178 39.274 52.1194 39.7451 52.5681L40.4348 51.8439C40.2619 51.6793 40.1069 51.3228 40.1069 50.619H39.1069ZM39.7545 52.5768C40.2194 52.9974 40.9401 53.143 41.7689 53.143V52.143C41.0031 52.143 40.6045 51.9972 40.4254 51.8352L39.7545 52.5768ZM41.7689 53.143H42.4129V52.143H41.7689V53.143ZM42.4129 53.143C42.4674 53.143 42.4918 53.1518 42.4977 53.1543C42.5006 53.1556 42.5009 53.156 42.5 53.1553C42.4991 53.1546 42.4995 53.1547 42.5013 53.157L43.2906 52.543C43.0669 52.2555 42.7429 52.143 42.4129 52.143V53.143ZM42.5424 53.2036C42.5652 53.2263 42.5799 53.2497 42.5799 53.31H43.5799C43.5799 53.0023 43.472 52.719 43.2495 52.4964L42.5424 53.2036ZM42.5799 53.31C42.5799 53.3711 42.5639 53.414 42.5222 53.4608L43.2696 54.1252C43.4734 53.896 43.5799 53.6169 43.5799 53.31H42.5799ZM42.5013 53.486C42.4995 53.4883 42.4991 53.4884 42.5 53.4877C42.5009 53.487 42.5006 53.4874 42.4977 53.4887C42.4918 53.4912 42.4674 53.5 42.4129 53.5V54.5C42.7429 54.5 43.0669 54.3875 43.2906 54.1L42.5013 53.486ZM42.4129 53.5H41.7689V54.5H42.4129V53.5ZM44.9641 39.625L44.6106 39.9786L44.6242 39.9921L44.6387 40.0046L44.9641 39.625ZM44.9641 38.268L44.6387 37.8884L44.6318 37.8944L44.625 37.9006L44.9641 38.268ZM46.4131 38.268L46.074 38.6354V38.6354L46.4131 38.268ZM46.4131 39.625L46.7523 39.9924L46.7596 39.9856L46.7667 39.9786L46.4131 39.625ZM45.1481 53.816L44.816 54.1897L44.8257 54.1983L44.8358 54.2064L45.1481 53.816ZM45.1481 43.282L45.4256 43.6981L45.4349 43.6916L45.1481 43.282ZM46.2061 43.282L45.8992 43.6767L45.923 43.6952L45.9489 43.7107L46.2061 43.282ZM46.2061 53.816L45.8938 53.4256L45.8837 53.4337L45.874 53.4423L46.2061 53.816ZM45.7001 39.401C45.5466 39.401 45.416 39.3538 45.2895 39.2454L44.6387 40.0046C44.9416 40.2642 45.3016 40.401 45.7001 40.401V39.401ZM45.3177 39.2714C45.2037 39.1574 45.1651 39.0516 45.1651 38.935H44.1651C44.1651 39.3397 44.3259 39.6939 44.6106 39.9786L45.3177 39.2714ZM45.1651 38.935C45.1651 38.8202 45.2018 38.7291 45.3033 38.6354L44.625 37.9006C44.3278 38.1749 44.1651 38.5285 44.1651 38.935H45.1651ZM45.2895 38.6476C45.416 38.5392 45.5466 38.492 45.7001 38.492V37.492C45.3016 37.492 44.9416 37.6288 44.6387 37.8884L45.2895 38.6476ZM45.7001 38.492C45.8529 38.492 45.9688 38.5383 46.074 38.6354L46.7523 37.9006C46.4588 37.6297 46.0994 37.492 45.7001 37.492V38.492ZM46.074 38.6354C46.1755 38.7291 46.2121 38.8202 46.2121 38.935H47.2121C47.2121 38.5285 47.0494 38.1749 46.7523 37.9006L46.074 38.6354ZM46.2121 38.935C46.2121 39.0516 46.1736 39.1574 46.0596 39.2714L46.7667 39.9786C47.0514 39.6939 47.2121 39.3397 47.2121 38.935H46.2121ZM46.074 39.2576C45.9688 39.3547 45.8529 39.401 45.7001 39.401V40.401C46.0994 40.401 46.4588 40.2633 46.7523 39.9924L46.074 39.2576ZM45.6771 53.5C45.5895 53.5 45.5237 53.4761 45.4605 53.4256L44.8358 54.2064C45.0792 54.4012 45.3661 54.5 45.6771 54.5V53.5ZM45.4803 53.4423C45.4497 53.4151 45.4412 53.399 45.4401 53.3969C45.4396 53.3958 45.4401 53.3967 45.4406 53.3989C45.4411 53.4011 45.4411 53.4025 45.4411 53.402H44.4411C44.4411 53.7271 44.595 53.9933 44.816 54.1897L45.4803 53.4423ZM45.4411 53.402V43.696H44.4411V53.402H45.4411ZM45.4411 43.696C45.4411 43.6812 45.4425 43.6735 45.443 43.6714C45.4434 43.6696 45.4429 43.6725 45.4401 43.6781C45.4372 43.6839 45.4333 43.6896 45.4292 43.6941C45.4253 43.6985 45.4232 43.6995 45.4255 43.698L44.8708 42.866C44.5767 43.062 44.4411 43.3663 44.4411 43.696H45.4411ZM45.4349 43.6916C45.4986 43.647 45.5733 43.621 45.6771 43.621V42.621C45.3823 42.621 45.1044 42.7023 44.8614 42.8724L45.4349 43.6916ZM45.6771 43.621C45.8066 43.621 45.8674 43.652 45.8992 43.6767L46.5131 42.8873C46.2688 42.6973 45.977 42.621 45.6771 42.621V43.621ZM45.9489 43.7107C45.9556 43.7148 45.9561 43.716 45.9532 43.7132C45.9501 43.7101 45.9456 43.7046 45.9416 43.6973C45.9375 43.69 45.9358 43.6844 45.9354 43.6824C45.935 43.6808 45.9361 43.6847 45.9361 43.696H46.9361C46.9361 43.3426 46.7726 43.0388 46.4634 42.8533L45.9489 43.7107ZM45.9361 43.696V53.402H46.9361V43.696H45.9361ZM45.9361 53.402C45.9361 53.3982 45.9367 53.3927 45.9382 53.3869C45.9389 53.3841 45.9397 53.3819 45.9404 53.3802C45.9411 53.3785 45.9416 53.3776 45.9416 53.3777C45.9415 53.3778 45.9316 53.3953 45.8938 53.4256L46.5185 54.2064C46.7542 54.0178 46.9361 53.7482 46.9361 53.402H45.9361ZM45.874 53.4423C45.8421 53.4706 45.7905 53.5 45.6771 53.5V54.5C45.9931 54.5 46.2941 54.4068 46.5383 54.1897L45.874 53.4423ZM50.8856 53.586L51.1369 53.1537L50.8856 53.586ZM49.4136 52.022L48.9643 52.2414L49.4136 52.022ZM49.3906 45.122L48.9412 44.9025L48.9372 44.9111L49.3906 45.122ZM50.8626 43.558L50.6155 43.1233L50.6112 43.1257L50.8626 43.558ZM55.0716 43.236L54.9044 43.7072L54.9133 43.7104L54.9224 43.7132L55.0716 43.236ZM56.1986 43.811L55.8676 44.1861L55.8785 44.1951L56.1986 43.811ZM56.5206 44.823L56.0733 44.5994L56.0668 44.6125L56.061 44.626L56.5206 44.823ZM56.2906 45.099L55.9999 44.6921L55.9848 44.703L55.9705 44.7149L56.2906 45.099ZM55.4856 45.007L55.1492 45.377L55.1667 45.3928L55.1856 45.407L55.4856 45.007ZM51.1846 45.168L50.8259 44.8196L50.8258 44.8198L51.1846 45.168ZM51.1846 51.999L50.8208 52.342L50.8258 52.3474L50.831 52.3526L51.1846 51.999ZM54.8416 52.574L55.0385 53.0336L55.0476 53.0297L55.0565 53.0254L54.8416 52.574ZM55.5776 52.137L55.8942 52.524L55.8977 52.5211L55.5776 52.137ZM56.4286 52.022L56.1085 52.4061L56.1228 52.418L56.1379 52.4289L56.4286 52.022ZM56.6586 52.298L56.199 52.495L56.2103 52.5212L56.2244 52.5461L56.6586 52.298ZM56.3366 53.31L56.6567 53.6941L56.6628 53.689L56.6687 53.6837L56.3366 53.31ZM55.1636 53.908L55.0054 53.4336L55.001 53.4352L55.1636 53.908ZM53.3926 53.661C52.4409 53.661 51.6989 53.4805 51.1369 53.1537L50.6342 54.0183C51.3909 54.4582 52.3202 54.661 53.3926 54.661V53.661ZM51.1369 53.1537C50.5596 52.8181 50.1396 52.3693 49.8628 51.8026L48.9643 52.2414C49.3315 52.9934 49.8929 53.5872 50.6342 54.0183L51.1369 53.1537ZM49.8628 51.8026C49.5783 51.2199 49.4306 50.5528 49.4306 49.791H48.4306C48.4306 50.6852 48.6048 51.5054 48.9643 52.2414L49.8628 51.8026ZM49.4306 49.791V47.353H48.4306V49.791H49.4306ZM49.4306 47.353C49.4306 46.5877 49.572 45.9176 49.8439 45.3329L48.9372 44.9111C48.5958 45.6451 48.4306 46.4623 48.4306 47.353H49.4306ZM49.8398 45.3414C50.1166 44.7747 50.5366 44.3259 51.1139 43.9903L50.6112 43.1257C49.8699 43.5568 49.3085 44.1506 48.9413 44.9026L49.8398 45.3414ZM51.1096 43.9927C51.6894 43.6633 52.4415 43.483 53.3926 43.483V42.483C52.3196 42.483 51.385 42.6861 50.6156 43.1233L51.1096 43.9927ZM53.3926 43.483C53.9946 43.483 54.4952 43.562 54.9044 43.7072L55.2388 42.7648C54.6972 42.5726 54.0785 42.483 53.3926 42.483V43.483ZM54.9224 43.7132C55.3754 43.8548 55.6788 44.0192 55.8677 44.1859L56.5294 43.4361C56.197 43.1428 55.7491 42.9239 55.2207 42.7588L54.9224 43.7132ZM55.8785 44.1951C55.9895 44.2877 56.0518 44.3617 56.0842 44.4139C56.0998 44.439 56.1068 44.4564 56.1099 44.4661C56.1114 44.471 56.1121 44.4741 56.1123 44.4758C56.1124 44.4766 56.1125 44.4772 56.1125 44.4775C56.1126 44.4778 56.1126 44.478 56.1126 44.478H57.1126C57.1126 44.0395 56.834 43.6897 56.5187 43.4269L55.8785 44.1951ZM56.1126 44.478C56.1126 44.4892 56.1093 44.5274 56.0733 44.5994L56.9678 45.0466C57.0545 44.8732 57.1126 44.6815 57.1126 44.478H56.1126ZM56.061 44.626C56.0555 44.6388 56.0427 44.6616 55.9999 44.6921L56.5812 45.5059C56.7531 45.3831 56.8936 45.2219 56.9801 45.02L56.061 44.626ZM55.9705 44.7149C55.9685 44.7165 55.968 44.7167 55.9688 44.7162C55.9697 44.7157 55.9711 44.715 55.9729 44.7144C55.9746 44.7138 55.9756 44.7136 55.9755 44.7136C55.9753 44.7137 55.9731 44.714 55.9686 44.714V45.714C56.2051 45.714 56.4264 45.6366 56.6106 45.4831L55.9705 44.7149ZM55.9686 44.714C55.9829 44.714 55.9757 44.7174 55.9413 44.7027C55.9067 44.6879 55.855 44.6591 55.7856 44.607L55.1856 45.407C55.4036 45.5705 55.6713 45.714 55.9686 45.714V44.714ZM55.8219 44.637C55.6005 44.4358 55.3118 44.2644 54.9777 44.114L54.5674 45.026C54.8466 45.1516 55.0332 45.2715 55.1492 45.377L55.8219 44.637ZM54.9777 44.114C54.5768 43.9336 54.0575 43.863 53.4616 43.863V44.863C54.0003 44.863 54.3549 44.9304 54.5674 45.026L54.9777 44.114ZM53.4616 43.863C52.3764 43.863 51.4696 44.157 50.8259 44.8196L51.5432 45.5164C51.9422 45.1056 52.5534 44.863 53.4616 44.863V43.863ZM50.8258 44.8198C50.2053 45.459 49.9256 46.3265 49.9256 47.353H50.9256C50.9256 46.5088 51.1518 45.9196 51.5434 45.5162L50.8258 44.8198ZM49.9256 47.353V49.791H50.9256V47.353H49.9256ZM49.9256 49.791C49.9256 50.8182 50.2056 51.6895 50.8208 52.342L51.5484 51.656C51.1515 51.2351 50.9256 50.6344 50.9256 49.791H49.9256ZM50.831 52.3526C51.4766 52.9982 52.3905 53.281 53.4846 53.281V52.281C52.5546 52.281 51.9352 52.0425 51.5381 51.6454L50.831 52.3526ZM53.4846 53.281C54.0959 53.281 54.6263 53.2102 55.0385 53.0336L54.6446 52.1144C54.4128 52.2138 54.0386 52.281 53.4846 52.281V53.281ZM55.0565 53.0254C55.395 52.8643 55.681 52.6984 55.8942 52.524L55.2609 51.75C55.1368 51.8516 54.9321 51.9771 54.6266 52.1226L55.0565 53.0254ZM55.8977 52.5211C55.9647 52.4652 56.0152 52.435 56.049 52.4197C56.0816 52.4048 56.0915 52.407 56.0836 52.407V51.407C55.7633 51.407 55.4835 51.5645 55.2575 51.7529L55.8977 52.5211ZM56.0836 52.407C56.1061 52.407 56.1152 52.4101 56.1152 52.4101C56.1153 52.4101 56.1142 52.4098 56.1124 52.4088C56.1106 52.4078 56.1092 52.4067 56.1085 52.4061L56.7487 51.6379C56.5533 51.4751 56.3197 51.407 56.0836 51.407V52.407ZM56.1379 52.4289C56.1807 52.4594 56.1935 52.4822 56.199 52.495L57.1181 52.101C57.0316 51.8991 56.8911 51.7379 56.7192 51.6151L56.1379 52.4289ZM56.2244 52.5461C56.243 52.5785 56.2506 52.6081 56.2506 52.643H57.2506C57.2506 52.4326 57.1968 52.2322 57.0927 52.0499L56.2244 52.5461ZM56.2506 52.643C56.2506 52.6246 56.2571 52.6393 56.2222 52.6956C56.1867 52.7528 56.1199 52.8336 56.0044 52.9363L56.6687 53.6837C56.968 53.4177 57.2506 53.0679 57.2506 52.643H56.2506ZM56.0165 52.9259C55.8057 53.1016 55.4783 53.276 55.0054 53.4337L55.3217 54.3823C55.8608 54.2026 56.3155 53.9784 56.6567 53.6941L56.0165 52.9259ZM55.001 53.4352C54.5767 53.581 54.0444 53.661 53.3926 53.661V54.661C54.1208 54.661 54.7691 54.5723 55.3261 54.3808L55.001 53.4352ZM60.6203 53.609L60.3967 54.0562L60.4004 54.058L60.6203 53.609ZM58.8723 52.091L58.4487 52.357L58.4563 52.3683L58.8723 52.091ZM58.8493 45.122L59.2745 45.3852L59.2772 45.3807L58.8493 45.122ZM60.4363 43.558L60.1893 43.1233L60.185 43.1257L60.4363 43.558ZM64.7603 43.535L64.5121 43.9693L64.5245 43.9759L64.7603 43.535ZM66.3473 45.007L66.7696 44.7392L66.3473 45.007ZM66.6463 48.457L67.0435 48.7607L66.6463 48.457ZM65.8873 48.94L65.9653 49.4339L65.9754 49.4323L65.9854 49.4303L65.8873 48.94ZM59.7463 49.009V48.509H59.2463V49.009H59.7463ZM60.7353 52.045L61.0509 51.6572L60.7353 52.045ZM64.6683 52.62L64.4614 52.1648L64.6683 52.62ZM65.4503 52.16L65.1455 51.7637L65.1377 51.7696L65.1302 51.7759L65.4503 52.16ZM66.3243 52.068L65.9708 52.4216L66 52.4508L66.0337 52.4749L66.3243 52.068ZM66.5543 52.344L66.0947 52.541L66.106 52.5672L66.1202 52.5921L66.5543 52.344ZM66.2323 53.264L65.9001 52.8903L66.2323 53.264ZM65.0363 53.908L65.1903 54.3839L65.2027 54.3795L65.0363 53.908ZM59.7463 47.905H59.2463V48.405H59.7463V47.905ZM65.2663 47.767L65.5236 48.1957L65.5386 48.1867L65.553 48.1766L65.2663 47.767ZM65.1283 45.743L64.6905 45.9846L64.6942 45.9911L65.1283 45.743ZM64.1163 44.662L63.8355 45.0759L63.8459 45.0826L64.1163 44.662ZM61.1723 44.616L60.9194 44.1846L60.9128 44.1886L61.1723 44.616ZM60.1373 45.628L59.7142 45.3616L60.1373 45.628ZM63.1963 53.661C62.2948 53.661 61.5133 53.4896 60.8402 53.16L60.4004 54.058C61.23 54.4644 62.1659 54.661 63.1963 54.661V53.661ZM60.8439 53.1618C60.1807 52.8302 59.6663 52.3807 59.2883 51.8137L58.4563 52.3683C58.9369 53.0893 59.588 53.6518 60.3967 54.0562L60.8439 53.1618ZM59.2958 51.8251C58.9377 51.2549 58.7513 50.5828 58.7513 49.791H57.7513C57.7513 50.7472 57.9789 51.6084 58.4489 52.3569L59.2958 51.8251ZM58.7513 49.791V47.238H57.7513V49.791H58.7513ZM58.7513 47.238C58.7513 46.5631 58.9253 45.9491 59.2744 45.3852L58.4242 44.8588C57.9759 45.5829 57.7513 46.3796 57.7513 47.238H58.7513ZM59.2772 45.3807C59.6329 44.7923 60.1015 44.331 60.6876 43.9903L60.185 43.1257C59.4524 43.5517 58.863 44.133 58.4214 44.8633L59.2772 45.3807ZM60.6833 43.9927C61.2805 43.6534 61.9311 43.483 62.6443 43.483V42.483C61.7629 42.483 60.9414 42.6959 60.1893 43.1233L60.6833 43.9927ZM62.6443 43.483C63.327 43.483 63.9464 43.6458 64.5122 43.9691L65.0084 43.1009C64.2862 42.6882 63.4949 42.483 62.6443 42.483V43.483ZM64.5245 43.9759C65.1081 44.2881 65.5728 44.7193 65.9251 45.2748L66.7696 44.7392C66.3245 44.0374 65.7311 43.4873 64.9961 43.0941L64.5245 43.9759ZM65.9251 45.2748C66.2674 45.8146 66.4453 46.4478 66.4453 47.192H67.4453C67.4453 46.2802 67.2246 45.4568 66.7696 44.7392L65.9251 45.2748ZM66.4453 47.192C66.4453 47.7404 66.3471 48.0251 66.2491 48.1533L67.0435 48.7607C67.3442 48.3675 67.4453 47.8089 67.4453 47.192H66.4453ZM66.2491 48.1533C66.1196 48.3227 65.9706 48.4134 65.7892 48.4497L65.9854 49.4303C66.4173 49.3439 66.7744 49.1126 67.0435 48.7607L66.2491 48.1533ZM65.8093 48.4461C65.5471 48.4875 65.2592 48.509 64.9443 48.509V49.509C65.3041 49.509 65.6448 49.4845 65.9653 49.4339L65.8093 48.4461ZM64.9443 48.509H59.7463V49.509H64.9443V48.509ZM59.2463 49.009V49.86H60.2463V49.009H59.2463ZM59.2463 49.86C59.2463 50.9163 59.6332 51.7926 60.4197 52.4328L61.0509 51.6572C60.5188 51.2241 60.2463 50.6437 60.2463 49.86H59.2463ZM60.4197 52.4328C61.1844 53.0552 62.1381 53.35 63.2423 53.35V52.35C62.3225 52.35 61.6049 52.1081 61.0509 51.6572L60.4197 52.4328ZM63.2423 53.35C63.8861 53.35 64.4438 53.2713 64.8752 53.0752L64.4614 52.1648C64.2181 52.2754 63.8252 52.35 63.2423 52.35V53.35ZM64.8752 53.0752C65.2337 52.9123 65.5387 52.7372 65.7704 52.5441L65.1302 51.7759C64.994 51.8894 64.7776 52.0211 64.4614 52.1648L64.8752 53.0752ZM65.7552 52.5563C65.9081 52.4387 65.9864 52.43 66.0023 52.43V51.43C65.6809 51.43 65.3912 51.5747 65.1455 51.7637L65.7552 52.5563ZM66.0023 52.43C66.0016 52.43 65.9984 52.4299 65.9934 52.4289C65.9883 52.4279 65.983 52.4263 65.9778 52.4241C65.9667 52.4193 65.9646 52.4154 65.9708 52.4216L66.6779 51.7144C66.4984 51.535 66.2663 51.43 66.0023 51.43V52.43ZM66.0337 52.4749C66.0764 52.5054 66.0893 52.5282 66.0947 52.541L67.0139 52.147C66.9273 51.9451 66.7868 51.7839 66.6149 51.6611L66.0337 52.4749ZM66.1202 52.5921C66.1526 52.6489 66.1463 52.6629 66.1463 52.643H67.1463C67.1463 52.4391 67.0786 52.2538 66.9884 52.0959L66.1202 52.5921ZM66.1463 52.643C66.1463 52.5921 66.1656 52.5892 66.1268 52.6474C66.0899 52.7027 66.02 52.7837 65.9001 52.8903L66.5645 53.6377C66.7206 53.4989 66.8577 53.3538 66.9588 53.2021C67.058 53.0533 67.1463 52.8626 67.1463 52.643H66.1463ZM65.9001 52.8903C65.6904 53.0767 65.3576 53.2644 64.8699 53.4365L65.2027 54.3795C65.7576 54.1836 66.2222 53.9419 66.5645 53.6377L65.9001 52.8903ZM64.8824 53.4323C64.4227 53.581 63.8636 53.661 63.1963 53.661V54.661C63.9397 54.661 64.6072 54.5723 65.1902 54.3837L64.8824 53.4323ZM59.7463 48.405H64.3463V47.405H59.7463V48.405ZM64.3463 48.405C64.5905 48.405 64.8089 48.393 64.9955 48.365C65.173 48.3383 65.3639 48.2915 65.5236 48.1957L65.0091 47.3383C65.0154 47.3345 64.9763 47.3567 64.8471 47.376C64.727 47.394 64.5621 47.405 64.3463 47.405V48.405ZM65.553 48.1766C65.9131 47.9246 65.9963 47.492 65.9963 47.123H64.9963C64.9963 47.2484 64.9808 47.3212 64.9679 47.3573C64.9567 47.3887 64.9543 47.3751 64.9796 47.3574L65.553 48.1766ZM65.9963 47.123C65.9963 46.5446 65.8506 45.9992 65.5624 45.4949L64.6942 45.9911C64.8967 46.3455 64.9963 46.7201 64.9963 47.123H65.9963ZM65.5661 45.5015C65.2805 44.9838 64.8855 44.562 64.3867 44.2414L63.8459 45.0826C64.2058 45.314 64.4855 45.6129 64.6905 45.9845L65.5661 45.5015ZM64.3971 44.2483C63.8772 43.8955 63.279 43.725 62.6213 43.725V44.725C63.0983 44.725 63.4968 44.8459 63.8356 45.0757L64.3971 44.2483ZM62.6213 43.725C62.0122 43.725 61.4417 43.8785 60.9194 44.1847L61.4252 45.0473C61.7922 44.8322 62.1878 44.725 62.6213 44.725V43.725ZM60.9128 44.1886C60.419 44.4884 60.0173 44.8802 59.7142 45.3616L60.5604 45.8944C60.7786 45.5478 61.0669 45.2649 61.4318 45.0434L60.9128 44.1886ZM59.7142 45.3616C59.4 45.8607 59.2463 46.4219 59.2463 47.031H60.2463C60.2463 46.5975 60.3533 46.2233 60.5604 45.8944L59.7142 45.3616ZM59.2463 47.031V47.905H60.2463V47.031H59.2463ZM69.5905 53.816L69.2583 54.1897L69.268 54.1983L69.2781 54.2064L69.5905 53.816ZM69.5905 36.612L69.8679 37.0281L69.8772 37.0216L69.5905 36.612ZM70.6485 36.612L70.3415 37.0067L70.3654 37.0252L70.3912 37.0407L70.6485 36.612ZM70.6485 53.816L70.3361 53.4256L70.326 53.4337L70.3163 53.4423L70.6485 53.816ZM70.1195 53.5C70.0318 53.5 69.9661 53.4761 69.9028 53.4256L69.2781 54.2064C69.5216 54.4012 69.8085 54.5 70.1195 54.5V53.5ZM69.9227 53.4423C69.8921 53.4151 69.8835 53.399 69.8825 53.3969C69.8819 53.3958 69.8824 53.3967 69.883 53.3989C69.8835 53.4011 69.8835 53.4025 69.8835 53.402H68.8835C68.8835 53.7271 69.0373 53.9933 69.2583 54.1897L69.9227 53.4423ZM69.8835 53.402V37.026H68.8835V53.402H69.8835ZM69.8835 37.026C69.8835 37.0112 69.8849 37.0035 69.8853 37.0014C69.8857 36.9996 69.8853 37.0025 69.8825 37.0081C69.8796 37.0139 69.8757 37.0196 69.8716 37.0241C69.8676 37.0285 69.8656 37.0295 69.8678 37.028L69.3131 36.196C69.019 36.392 68.8835 36.6963 68.8835 37.026H69.8835ZM69.8772 37.0216C69.9409 36.977 70.0157 36.951 70.1195 36.951V35.951C69.8246 35.951 69.5467 36.0323 69.3038 36.2024L69.8772 37.0216ZM70.1195 36.951C70.249 36.951 70.3098 36.982 70.3415 37.0067L70.9555 36.2173C70.7112 36.0273 70.4194 35.951 70.1195 35.951V36.951ZM70.3912 37.0407C70.398 37.0448 70.3984 37.046 70.3956 37.0432C70.3925 37.0401 70.388 37.0346 70.3839 37.0273C70.3799 37.02 70.3782 37.0144 70.3777 37.0124C70.3773 37.0108 70.3785 37.0147 70.3785 37.026H71.3785C71.3785 36.6726 71.215 36.3688 70.9057 36.1833L70.3912 37.0407ZM70.3785 37.026V53.402H71.3785V37.026H70.3785ZM70.3785 53.402C70.3785 53.3982 70.379 53.3927 70.3806 53.3869C70.3813 53.3841 70.3821 53.3819 70.3828 53.3802C70.3835 53.3785 70.3839 53.3776 70.3839 53.3777C70.3838 53.3778 70.374 53.3953 70.3361 53.4256L70.9608 54.2064C71.1966 54.0178 71.3785 53.7482 71.3785 53.402H70.3785ZM70.3163 53.4423C70.2845 53.4706 70.2328 53.5 70.1195 53.5V54.5C70.4355 54.5 70.7365 54.4068 70.9807 54.1897L70.3163 53.4423ZM75.2947 53.632L75.0749 54.0812L75.0827 54.0848L75.2947 53.632ZM73.6157 52.183L73.1964 52.4555L73.6157 52.183ZM73.2017 49.469L72.8947 49.0743L72.8833 49.0832L72.8724 49.0927L73.2017 49.469ZM74.2827 49.446L74.0254 49.8747L74.0342 49.88L74.0432 49.8849L74.2827 49.446ZM74.5357 49.906H74.0355L74.0359 49.9195L74.5357 49.906ZM74.9497 51.401L74.5223 51.6605L74.9497 51.401ZM76.0767 52.39L76.2889 51.9373L76.0767 52.39ZM80.1937 51.884L79.8401 51.5304L80.1937 51.884ZM81.0677 38.59H81.5677V38.09H81.0677V38.59ZM77.4107 38.383L76.9819 38.6402L76.9975 38.6661L77.016 38.69L77.4107 38.383ZM77.3877 37.417L76.9589 37.1598L76.9546 37.1669L76.9506 37.1742L77.3877 37.417ZM82.3557 37.348L82.0487 37.7427L82.0725 37.7612L82.0984 37.7767L82.3557 37.348ZM81.9417 52.091L81.5121 51.8351L81.5081 51.8419L81.9417 52.091ZM80.2397 53.655L80.0357 53.1985L80.032 53.2002L80.2397 53.655ZM77.8477 53.638C76.9229 53.638 76.1473 53.4791 75.5066 53.1792L75.0827 54.0848C75.8833 54.4596 76.8098 54.638 77.8477 54.638V53.638ZM75.5144 53.1829C74.8669 52.866 74.3796 52.4408 74.0349 51.9105L73.1964 52.4555C73.6491 53.1519 74.2811 53.6927 75.0749 54.0811L75.5144 53.1829ZM74.0349 51.9105C73.6926 51.3839 73.5177 50.7823 73.5177 50.09H72.5177C72.5177 50.9617 72.7414 51.7554 73.1964 52.4555L74.0349 51.9105ZM73.5177 50.09C73.5177 49.9663 73.5305 49.8893 73.5431 49.8468C73.5554 49.8052 73.5604 49.8195 73.5309 49.8453L72.8724 49.0927C72.577 49.3512 72.5177 49.7551 72.5177 50.09H73.5177ZM73.5086 49.8637C73.5296 49.8474 73.5986 49.808 73.7767 49.808V48.808C73.4641 48.808 73.1498 48.8759 72.8947 49.0743L73.5086 49.8637ZM73.7767 49.808C73.8728 49.808 73.9521 49.8308 74.0254 49.8747L74.5399 49.0173C74.3065 48.8772 74.0485 48.808 73.7767 48.808V49.808ZM74.0432 49.8849C74.0493 49.8883 74.0489 49.8889 74.0453 49.8855C74.0414 49.8817 74.0374 49.8765 74.0343 49.871C74.0314 49.8656 74.0315 49.8638 74.0325 49.8682C74.0336 49.873 74.0357 49.8849 74.0357 49.906H75.0357C75.0357 49.5346 74.8731 49.1985 74.5221 49.0071L74.0432 49.8849ZM74.0359 49.9195C74.0532 50.5622 74.2109 51.1476 74.5223 51.6605L75.3771 51.1415C75.1671 50.7957 75.0488 50.3844 75.0355 49.8925L74.0359 49.9195ZM74.5223 51.6605C74.8381 52.1807 75.292 52.5744 75.8644 52.8427L76.2889 51.9373C75.88 51.7456 75.5825 51.4799 75.3771 51.1415L74.5223 51.6605ZM75.8644 52.8427C76.4343 53.1099 77.0846 53.235 77.8017 53.235V52.235C77.2001 52.235 76.7003 52.1301 76.2889 51.9373L75.8644 52.8427ZM77.8017 53.235C78.9226 53.235 79.8618 52.923 80.5472 52.2376L79.8401 51.5304C79.3909 51.9796 78.7354 52.235 77.8017 52.235V53.235ZM80.5472 52.2376C81.2589 51.5259 81.5677 50.4847 81.5677 49.216H80.5677C80.5677 50.3393 80.2938 51.0768 79.8401 51.5304L80.5472 52.2376ZM81.5677 49.216V38.59H80.5677V49.216H81.5677ZM81.0677 38.09H77.8247V39.09H81.0677V38.09ZM77.8247 38.09C77.8206 38.09 77.8178 38.0898 77.8161 38.0896C77.8153 38.0895 77.8146 38.0894 77.8143 38.0894C77.8139 38.0893 77.8137 38.0893 77.8137 38.0893C77.8137 38.0893 77.8138 38.0893 77.8141 38.0894C77.8144 38.0895 77.8148 38.0896 77.8152 38.0897C77.8162 38.0901 77.8173 38.0905 77.8183 38.091C77.8206 38.0922 77.821 38.0928 77.8194 38.0914C77.8176 38.0899 77.8127 38.0854 77.8053 38.076L77.016 38.69C77.214 38.9446 77.4953 39.09 77.8247 39.09V38.09ZM77.8394 38.1258C77.7954 38.0525 77.7727 37.9731 77.7727 37.877H76.7727C76.7727 38.1489 76.8419 38.4069 76.9819 38.6402L77.8394 38.1258ZM77.7727 37.877C77.7727 37.7873 77.7922 37.7185 77.8247 37.6598L76.9506 37.1742C76.8298 37.3915 76.7727 37.6294 76.7727 37.877H77.7727ZM77.8164 37.6742C77.8188 37.6703 77.8185 37.6717 77.8144 37.6757C77.8102 37.6798 77.8046 37.6839 77.7988 37.687C77.7932 37.6899 77.7907 37.6901 77.7937 37.6895C77.797 37.6887 77.8068 37.687 77.8247 37.687V36.687C77.4739 36.687 77.1531 36.8362 76.9589 37.1598L77.8164 37.6742ZM77.8247 37.687H81.8957V36.687H77.8247V37.687ZM81.8957 37.687C81.9489 37.687 81.995 37.7009 82.0487 37.7427L82.6626 36.9533C82.4403 36.7804 82.1798 36.687 81.8957 36.687V37.687ZM82.0984 37.7767C82.1024 37.7791 82.1009 37.7788 82.097 37.7748C82.0929 37.7705 82.0888 37.7649 82.0857 37.7591C82.0828 37.7535 82.0825 37.751 82.0832 37.754C82.0839 37.7573 82.0857 37.7671 82.0857 37.785H83.0857C83.0857 37.4342 82.9365 37.1134 82.6129 36.9193L82.0984 37.7767ZM82.0857 37.785V49.216H83.0857V37.785H82.0857ZM82.0857 49.216C82.0857 50.3582 81.8798 51.218 81.5121 51.8351L82.3712 52.3469C82.8622 51.5227 83.0857 50.4658 83.0857 49.216H82.0857ZM81.5081 51.8419C81.1438 52.4761 80.6545 52.922 80.0357 53.1985L80.4436 54.1115C81.2661 53.744 81.9115 53.1472 82.3752 52.3401L81.5081 51.8419ZM80.032 53.2002C79.4008 53.4883 78.6759 53.638 77.8477 53.638V54.638C78.7981 54.638 79.6679 54.4657 80.4473 54.1098L80.032 53.2002ZM87.2498 53.724L87.0504 54.1826L87.0589 54.1861L87.2498 53.724ZM85.6168 52.689L85.2494 53.0281L85.2562 53.0355L85.2633 53.0426L85.6168 52.689ZM85.1568 51.286L84.7197 51.0432L84.7089 51.0626L84.6999 51.0829L85.1568 51.286ZM85.4328 50.964L85.7234 51.3709L85.7414 51.358L85.7582 51.3436L85.4328 50.964ZM86.2148 51.125L85.8185 51.4299L85.8317 51.447L85.8462 51.4629L86.2148 51.125ZM86.8588 51.792L86.5053 52.1456L86.5157 52.1559L86.5266 52.1657L86.8588 51.792ZM87.9398 52.459L87.7353 52.9153L87.7419 52.9182L87.7486 52.921L87.9398 52.459ZM91.5278 52.39L91.7348 52.8453L91.746 52.8399L91.5278 52.39ZM92.7008 51.332L93.1296 51.5893L93.1332 51.5831L92.7008 51.332ZM92.7008 47.79L93.1256 47.5263V47.5263L92.7008 47.79ZM91.5968 46.686L91.3228 47.1043L91.3293 47.1084L91.5968 46.686ZM90.1248 45.95L90.2989 45.4813L90.1248 45.95ZM88.4918 45.329L88.3061 45.7933L88.3106 45.795L88.4918 45.329ZM86.9968 44.547L86.71 44.9567L86.7195 44.963L86.9968 44.547ZM85.8928 43.305L85.4509 43.539L85.4539 43.5444L85.8928 43.305ZM85.9388 39.28L86.373 39.5281L86.3759 39.5228L85.9388 39.28ZM87.1118 37.992L86.8468 37.568L86.8408 37.5719L87.1118 37.992ZM88.6988 37.348L88.8045 37.8369L88.817 37.8338L88.6988 37.348ZM91.6658 37.256L91.5809 37.7487L91.5903 37.7504L91.5997 37.7516L91.6658 37.256ZM93.8508 37.992L93.5385 38.3824L93.5526 38.3938L93.5676 38.404L93.8508 37.992ZM94.1268 38.912L93.6699 38.7089L93.6639 38.7225L93.6587 38.7364L94.1268 38.912ZM93.9198 39.257L93.5402 38.9316V38.9316L93.9198 39.257ZM92.9768 39.211L92.7118 39.635L92.7216 39.6411L92.7317 39.6468L92.9768 39.211ZM91.9648 38.774L91.7912 39.2429L91.8014 39.2467L91.8118 39.25L91.9648 38.774ZM88.7218 38.774L88.5807 38.2943L88.5768 38.2955L88.7218 38.774ZM87.4798 39.602L87.8627 39.9237L87.8688 39.9162L87.4798 39.602ZM87.4108 42.684L87.0051 42.9762L87.0117 42.9854L87.0188 42.9944L87.4108 42.684ZM88.5148 43.581L88.2851 44.0252L88.2912 44.0282L88.5148 43.581ZM90.0098 44.225L89.8357 44.6939L89.8477 44.698L90.0098 44.225ZM91.6198 44.869L91.4119 45.3237L91.4197 45.3273L91.4275 45.3305L91.6198 44.869ZM93.1148 45.766L92.796 46.1512L92.8032 46.1571L92.8106 46.1628L93.1148 45.766ZM94.2188 47.169L94.6707 46.955L94.2188 47.169ZM94.0118 52.114L94.4406 52.3713L94.443 52.3671L94.0118 52.114ZM92.2868 53.655L92.0785 53.2005L92.0748 53.2022L92.2868 53.655ZM89.7798 53.661C88.8461 53.661 88.0709 53.5222 87.4407 53.2619L87.0589 54.1861C87.8394 54.5085 88.7509 54.661 89.7798 54.661V53.661ZM87.4492 53.2655C86.7792 52.9742 86.2949 52.66 85.9704 52.3354L85.2633 53.0426C85.7054 53.4846 86.3098 53.8605 87.0505 54.1825L87.4492 53.2655ZM85.9842 52.3499C85.6302 51.9664 85.5648 51.7516 85.5648 51.677H84.5648C84.5648 52.1544 84.8674 52.6143 85.2494 53.0281L85.9842 52.3499ZM85.5648 51.677C85.5648 51.6385 85.5744 51.5775 85.6137 51.4891L84.6999 51.0829C84.6166 51.2705 84.5648 51.4702 84.5648 51.677H85.5648ZM85.5939 51.5288C85.6415 51.4431 85.6872 51.3967 85.7234 51.3709L85.1422 50.5571C84.9637 50.6846 84.8254 50.8529 84.7197 51.0432L85.5939 51.5288ZM85.7582 51.3436C85.7812 51.3239 85.7923 51.3194 85.7908 51.3201C85.7898 51.3205 85.7858 51.3221 85.7791 51.3235C85.7723 51.325 85.764 51.326 85.7548 51.326V50.326C85.4946 50.326 85.2762 50.4397 85.1074 50.5844L85.7582 51.3436ZM85.7548 51.326C85.7174 51.326 85.7009 51.3126 85.7123 51.32C85.7274 51.3298 85.7643 51.3594 85.8185 51.4299L86.6111 50.8201C86.4233 50.576 86.1408 50.326 85.7548 50.326V51.326ZM85.8462 51.4629C86.0215 51.6541 86.2416 51.8819 86.5053 52.1456L87.2124 51.4384C86.9547 51.1807 86.7455 50.9639 86.5834 50.7871L85.8462 51.4629ZM86.5266 52.1657C86.8507 52.4537 87.258 52.7013 87.7353 52.9153L88.1443 52.0027C87.7322 51.818 87.419 51.6209 87.191 51.4183L86.5266 52.1657ZM87.7486 52.921C88.2763 53.1393 88.9311 53.235 89.6878 53.235V52.235C89.0032 52.235 88.4927 52.1467 88.131 51.997L87.7486 52.921ZM89.6878 53.235C90.4596 53.235 91.1475 53.1121 91.7347 52.8452L91.3209 51.9348C90.8961 52.1279 90.3574 52.235 89.6878 52.235V53.235ZM91.746 52.8399C92.3349 52.5543 92.8011 52.1367 93.1296 51.5892L92.2721 51.0748C92.0485 51.4473 91.7327 51.735 91.3097 51.9401L91.746 52.8399ZM93.1332 51.5831C93.4643 51.0128 93.6148 50.33 93.6148 49.561H92.6148C92.6148 50.2026 92.4893 50.7006 92.2684 51.0809L93.1332 51.5831ZM93.6148 49.561C93.6148 48.768 93.4669 48.0761 93.1256 47.5263L92.276 48.0537C92.4868 48.3932 92.6148 48.882 92.6148 49.561H93.6148ZM93.1256 47.5263C92.8082 47.0149 92.3854 46.5936 91.8643 46.2636L91.3293 47.1084C91.7282 47.3611 92.0414 47.6757 92.276 48.0537L93.1256 47.5263ZM91.8708 46.2678C91.3926 45.9544 90.868 45.6927 90.2989 45.4813L89.9507 46.4187C90.455 46.606 90.9117 46.8349 91.3228 47.1042L91.8708 46.2678ZM90.2989 45.4813C89.7647 45.2829 89.2227 45.0768 88.673 44.863L88.3106 45.795C88.8649 46.0106 89.4116 46.2185 89.9507 46.4187L90.2989 45.4813ZM88.6775 44.8648C88.1715 44.6624 87.7041 44.4176 87.2742 44.131L86.7195 44.963C87.2095 45.2897 87.7388 45.5663 88.3061 45.7932L88.6775 44.8648ZM87.2835 44.1374C86.8884 43.8608 86.5718 43.5057 86.3318 43.0656L85.4539 43.5444C85.7658 44.1163 86.1852 44.5892 86.7101 44.9566L87.2835 44.1374ZM86.3347 43.0711C86.1079 42.6426 85.9788 42.0702 85.9788 41.327H84.9788C84.9788 42.1785 85.1257 42.9247 85.4509 43.5389L86.3347 43.0711ZM85.9788 41.327C85.9788 40.5575 86.1217 39.9678 86.3729 39.5281L85.5047 39.0319C85.1426 39.6655 84.9788 40.4405 84.9788 41.327H85.9788ZM86.3759 39.5228C86.6474 39.0342 86.9844 38.6693 87.3829 38.4121L86.8408 37.5719C86.2886 37.9281 85.8436 38.4218 85.5017 39.0372L86.3759 39.5228ZM87.3768 38.416C87.8184 38.14 88.2934 37.9472 88.8045 37.8367L88.5931 36.8593C87.9696 36.9941 87.3866 37.2306 86.8468 37.568L87.3768 38.416ZM88.817 37.8338C89.349 37.7044 89.8613 37.641 90.3548 37.641V36.641C89.775 36.641 89.1833 36.7156 88.5806 36.8622L88.817 37.8338ZM90.3548 37.641C90.7543 37.641 91.1628 37.6767 91.5809 37.7487L91.7508 36.7633C91.2795 36.682 90.814 36.641 90.3548 36.641V37.641ZM91.5997 37.7516C92.0348 37.8096 92.4271 37.8958 92.7784 38.0082L93.0832 37.0558C92.6679 36.9229 92.2169 36.825 91.7319 36.7604L91.5997 37.7516ZM92.7784 38.0082C93.1235 38.1186 93.3701 38.2477 93.5385 38.3824L94.1632 37.6016C93.8716 37.3683 93.5048 37.1907 93.0832 37.0558L92.7784 38.0082ZM93.5676 38.404C93.6514 38.4616 93.6896 38.5066 93.7057 38.5318C93.7188 38.5522 93.7188 38.561 93.7188 38.567H94.7188C94.7188 38.1289 94.4581 37.8027 94.1341 37.58L93.5676 38.404ZM93.7188 38.567C93.7188 38.5589 93.7199 38.5663 93.7127 38.5934C93.7057 38.6198 93.6926 38.6579 93.6699 38.7089L94.5837 39.1151C94.6575 38.9491 94.7188 38.7598 94.7188 38.567H93.7188ZM93.6587 38.7364C93.6347 38.8002 93.5972 38.8651 93.5402 38.9316L94.2994 39.5824C94.4265 39.4342 94.5269 39.2691 94.595 39.0876L93.6587 38.7364ZM93.5402 38.9316C93.5397 38.9322 93.5412 38.9303 93.5451 38.9274C93.549 38.9245 93.5537 38.9217 93.5584 38.9197C93.5631 38.9176 93.5658 38.9171 93.5656 38.9171C93.5653 38.9172 93.561 38.918 93.5518 38.918V39.918C93.8371 39.918 94.1037 39.8107 94.2994 39.5824L93.5402 38.9316ZM93.5518 38.918C93.5611 38.918 93.5388 38.9192 93.4739 38.8958C93.412 38.8735 93.3288 38.8353 93.2219 38.7752L92.7317 39.6468C92.9891 39.7916 93.2769 39.918 93.5518 39.918V38.918ZM93.2418 38.787C92.9477 38.6032 92.5672 38.4424 92.1178 38.298L91.8118 39.25C92.2211 39.3816 92.5153 39.5122 92.7118 39.635L93.2418 38.787ZM92.1385 38.3051C91.6476 38.1233 91.0378 38.044 90.3318 38.044V39.044C90.9752 39.044 91.454 39.118 91.7912 39.2429L92.1385 38.3051ZM90.3318 38.044C89.7328 38.044 89.1486 38.1273 88.5807 38.2943L88.8629 39.2537C89.3377 39.114 89.8268 39.044 90.3318 39.044V38.044ZM88.5768 38.2955C87.9781 38.4769 87.4779 38.8086 87.0908 39.2878L87.8688 39.9162C88.1257 39.5981 88.4536 39.3777 88.8668 39.2525L88.5768 38.2955ZM87.097 39.2804C86.6765 39.7809 86.4968 40.4377 86.4968 41.189H87.4968C87.4968 40.5909 87.6391 40.1898 87.8627 39.9236L87.097 39.2804ZM86.4968 41.189C86.4968 41.876 86.6518 42.4855 87.0051 42.9762L87.8166 42.3918C87.6179 42.1159 87.4968 41.7287 87.4968 41.189H86.4968ZM87.0188 42.9944C87.357 43.4216 87.7817 43.7647 88.2851 44.0251L88.7445 43.1369C88.3586 42.9373 88.0473 42.6824 87.8028 42.3736L87.0188 42.9944ZM88.2912 44.0282C88.769 44.2671 89.284 44.4888 89.8357 44.6937L90.1839 43.7563C89.6623 43.5625 89.1806 43.3549 88.7384 43.1338L88.2912 44.0282ZM89.8477 44.698C90.3682 44.8764 90.8896 45.085 91.4119 45.3237L91.8277 44.4143C91.2767 44.1624 90.7248 43.9416 90.172 43.752L89.8477 44.698ZM91.4275 45.3305C91.9355 45.5422 92.3909 45.8159 92.796 46.1512L93.4336 45.3808C92.9494 44.9801 92.4082 44.6558 91.8121 44.4075L91.4275 45.3305ZM92.8106 46.1628C93.2008 46.4619 93.5211 46.864 93.7669 47.383L94.6707 46.955C94.3646 46.3087 93.9489 45.7754 93.419 45.3692L92.8106 46.1628ZM93.7669 47.383C94.0007 47.8765 94.1328 48.5476 94.1328 49.423H95.1328C95.1328 48.4584 94.9889 47.6268 94.6707 46.955L93.7669 47.383ZM94.1328 49.423C94.1328 50.4512 93.937 51.2537 93.5806 51.8609L94.443 52.3671C94.9146 51.5637 95.1328 50.5721 95.1328 49.423H94.1328ZM93.5831 51.8568C93.2213 52.4597 92.7234 52.9049 92.0785 53.2005L92.4951 54.1095C93.3222 53.7305 93.9743 53.1483 94.4406 52.3712L93.5831 51.8568ZM92.0748 53.2022C91.4322 53.503 90.6713 53.661 89.7798 53.661V54.661C90.7897 54.661 91.7001 54.4817 92.4988 54.1078L92.0748 53.2022Z" fill="white"/>
</g>
<defs>
<filter id="filter0_d_101_27" x="0" y="0" width="103" height="102" filterUnits="userSpaceOnUse" color-interpolation-filters="sRGB">
<feFlood flood-opacity="0" result="BackgroundImageFix"/>
<feColorMatrix in="SourceAlpha" type="matrix" values="0 0 0 0 0 0 0 0 0 0 0 0 0 0 0 0 0 0 127 0" result="hardAlpha"/>
<feOffset dy="4"/>
<feGaussianBlur stdDeviation="2"/>
<feComposite in2="hardAlpha" operator="out"/>
<feColorMatrix type="matrix" values="0 0 0 0 0 0 0 0 0 0 0 0 0 0 0 0 0 0 0.25 0"/>
<feBlend mode="normal" in2="BackgroundImageFix" result="effect1_dropShadow_101_27"/>
<feBlend mode="normal" in="SourceGraphic" in2="effect1_dropShadow_101_27" result="shape"/>
</filter>
<filter id="filter1_d_101_27" x="0" y="0" width="103" height="102" filterUnits="userSpaceOnUse" color-interpolation-filters="sRGB">
<feFlood flood-opacity="0" result="BackgroundImageFix"/>
<feColorMatrix in="SourceAlpha" type="matrix" values="0 0 0 0 0 0 0 0 0 0 0 0 0 0 0 0 0 0 127 0" result="hardAlpha"/>
<feOffset dy="4"/>
<feGaussianBlur stdDeviation="2"/>
<feComposite in2="hardAlpha" operator="out"/>
<feColorMatrix type="matrix" values="0 0 0 0 0 0 0 0 0 0 0 0 0 0 0 0 0 0 0.25 0"/>
<feBlend mode="normal" in2="BackgroundImageFix" result="effect1_dropShadow_101_27"/>
<feBlend mode="normal" in="SourceGraphic" in2="effect1_dropShadow_101_27" result="shape"/>
</filter>
<linearGradient id="paint0_linear_101_27" x1="97" y1="90.5" x2="2.47516e-07" y2="-23.5" gradientUnits="userSpaceOnUse">
<stop offset="0.102127" stop-color="#009990"/>
<stop offset="1" stop-color="#0EDD2F" stop-opacity="0.46"/>
</linearGradient>
</defs>
</svg>
